<svg version="1.0" xmlns="http://www.w3.org/2000/svg" width="1001.333" height="1001.333" viewBox="0 0 751 751"><path d="M351 119c-64.8 6-121.5 25.9-175 61.5C82.3 242.9 20.4 343.7 5.5 458.2c-2.1 16.7-3.7 47.9-2.9 57.5l.6 8.3h216.4l1.7-17.8c3.8-39.1 13.1-71.9 30.2-106.7 33.9-68.9 91.7-120.3 161.4-143.5 29.3-9.7 52.2-13.4 83.6-13.3 30.6 0 56.1 4.3 84.8 14.2 56.1 19.5 106.3 59.1 140.2 110.6 7.9 12.1 16.7 27.6 21 37.3 1.5 3.4 3 6 3.3 5.8.2-.3-1.4-6.5-3.8-13.8-44.5-141-158.7-246.8-294.2-272.7-20.9-4-34.8-5.3-61.3-5.6-14.3-.2-30.3 0-35.5.5z"/><path d="M469 273.1c-42.8 5.2-82.8 21.8-119.3 49.6-9.2 7-40.4 36.9-39.5 37.9.2.2 4-1.4 8.3-3.6 17.3-8.7 37.8-14.8 56.8-17 14.4-1.7 39-.8 52.2 2 45.2 9.5 83.8 35.5 109.6 73.9 19.1 28.4 29.9 63.7 29.9 98.3v9.8h180.8l-.4-3.8c-1.6-16.4-2.9-25.4-5-36.2-19.6-98.5-91-178.7-181.4-203.6-22.8-6.3-32.8-7.6-60-7.9-13.5-.2-27.9.1-32 .6zM43 580.9c-11.6 2.5-13.9 6.9-14 26.7 0 13 .2 14.4 2.3 17.4 1.2 1.9 3.8 4.3 5.7 5.4 3.3 2 5.3 2.1 34.9 2.4l31.3.3-.6-2.8c-.4-1.5-1.5-4.4-2.4-6.3l-1.7-3.5-22.8-.5c-27.6-.6-26 .3-25.5-14.2.2-6.2.8-10.2 1.6-11 1-1 6.8-1.4 22.7-1.6l21.5-.3 1.6-5.5c.9-3.1 1.3-5.8 1-6.1-.9-1-51.6-1.3-55.6-.4zm83.4 0c-5 .8-8.7 3.2-11.1 6.8-1.5 2.3-1.8 5.1-1.8 18.4 0 17.2.4 18.5 6.8 23.3 6.1 4.5 56.3 4.5 62.4 0 6.4-4.8 6.8-6.1 6.8-23.4 0-17.7-.5-19.3-7.6-23.5-3.1-1.8-5.4-2-27.4-2.2-13.2-.1-25.9.2-28.1.6zm40.3 13.4c1.4 1.4 1.9 3.8 2.1 11.2.4 9 .3 9.5-2.2 12-2.4 2.4-2.9 2.5-14.9 2.5-16.4 0-17.1-.4-17.5-12.2-.4-9.3.7-13.4 4-14.8 1.3-.5 7.8-.9 14.5-.7 10.2.2 12.5.5 14 2zm36.3 12.3v26.5l32.3-.3c31.3-.3 32.3-.4 36.9-2.6 7.3-3.6 8.8-7.6 8.8-23.8 0-24.9-2.9-26.4-50.3-26.4H203v26.6zm55-11.6c1.7 1.7 2 3.3 2 11.4 0 14.2.1 14.1-19.2 14.1h-15.3l-.3-13.8-.3-13.7h15.6c14.2 0 15.7.2 17.5 2zm36 11.5V633h38.5c21.2 0 38.5-.2 38.5-.5 0-1.4-4.3-8.8-6-10.5-1.9-1.9-3.5-2-25.5-2H316v-9h36v-11h-17.4c-9.6 0-17.7-.4-18-.9-.3-.5-.3-2.3 0-4l.7-3.1H366v-12h-72v26.5zm98.9-25.6c-5.6 1.2-10 4.2-12.2 8.4-1.6 3.2-1.9 5.8-2 17.5 0 14.5.7 17.6 5.1 21.5 4.6 4.2 8.4 4.6 39.6 4.7h29.8l-.6-2.6c-.4-1.5-1.5-4.3-2.4-6.3l-1.7-3.6-22.8-.5c-27.3-.6-25.7.2-25.7-13.5s-1.4-12.9 24.4-13.3l21.5-.3 1.6-5.6c.9-3 1.4-5.8 1.1-6.1-.9-.9-51.7-1.2-55.7-.3zm100.9.8c-1.9 2.2-29.4 47.2-30.4 49.5-.6 1.7.3 1.8 10.7 1.8h11.4l3.3-5 3.2-5h16.8c9.2 0 17.2.4 17.8.8.6.4 2.1 2.6 3.4 4.9l2.4 4.3h11.8c6.5 0 11.8-.2 11.8-.5 0-.2-7.1-12-15.8-26.2l-15.9-25.8-14.5-.3c-12.8-.2-14.6-.1-16 1.5zm21.1 19.2c2.8 4.8 5.1 9.1 5.1 9.5 0 .3-4.7.6-10.5.6-7.1 0-10.5-.4-10.5-1.1 0-1.5 9.3-17.8 10.2-17.9.3 0 2.9 4 5.7 8.9zm30.4-19.7c.3.7 6.8 12.5 14.4 26.3l14 25h27.8l14.7-26 14.8-26-11.2-.3c-6.3-.1-11.6.2-12.1.7-.5.5-5.1 8.9-10.1 18.7-5 9.7-9.6 17.6-10.1 17.5-.6-.1-5.3-8.5-10.5-18.6l-9.5-18.5h-11.4c-8.7 0-11.2.3-10.8 1.2zm91.7 25.3V633h78.1l-1.7-3.3c-.9-1.7-2.7-4.7-4.1-6.5l-2.4-3.2h-48l.3-4.3.3-4.2 18.8-.3 18.7-.2v-11h-37.1l.3-3.8.3-3.7 24.3-.3 24.2-.2v-12h-72v26.5z"/></svg>